<?xml version="1.0" encoding="UTF-8"?>
<svg id="Layer_2" data-name="Layer 2" xmlns="http://www.w3.org/2000/svg" viewBox="0 0 413.25 389.5">
  <defs>
    <style>
      .cls-1 {
        fill: #263238;
      }

      .cls-2 {
        fill: #263238;
      }

      .cls-3 {
        fill: #37474f;
      }

      .cls-4, .cls-5 {
        fill: #fff;
      }

      .cls-6 {
        fill: #ffc727;
      }

      .cls-7 {
        fill: #455a64;
      }

      .cls-8 {
        opacity: .2;
      }

      .cls-5 {
        opacity: .4;
      }

      .cls-9 {
        fill: #dbdbdb;
      }

      .cls-10 {
        fill: #ebebeb;
      }

      .cls-11 {
        opacity: .1;
      }
    </style>
  </defs>
  <g id="Speech_Bubble" data-name="Speech Bubble">
    <g>
      <g>
        <g>
          <path class="cls-1" d="M45.46,223.23c-13.07,12.79-15.26,32.59-12.51,49.92.07.39.68.29.68-.08,0-3.95-.12-7.86-.11-11.76.07-.18.13-.35.2-.52,3.41-2.48,6.55-5.28,8.49-9.12,2.18-4.29,3.04-9.13,4.71-13.62.16-.43-.3-.3-.6-.08-7.95,5.86-10.48,12.17-12.76,20.6.11-4.38.44-8.75,1.38-13.13,1.72-8,5.12-15.93,10.86-21.87.21-.23-.12-.57-.35-.35Z"/>
          <g>
            <path class="cls-6" d="M47.92,224.72c2.25.08,3.66,3.67,5.41,4.72.93.56,1.83.52,2.48-.39,1.74-2.42-.65-5.41-2.89-7.09,1.6.66,2.93,1.82,4.66,2.14,1.05.19,1.86-.2,2.1-1.26.76-3.3-3.38-4.77-6.23-4.84,1.38-.96,5.33-3.56,3.23-4.84-2.13-1.29-6.76,2.44-8.27,3.67-2.22,1.8-4.87,4.5-4.97,7.32-.13,3.29,2.75,1.27,4.48.58Z"/>
            <path class="cls-11" d="M47.92,224.72c2.25.08,3.66,3.67,5.41,4.72.93.56,1.83.52,2.48-.39,1.74-2.42-.65-5.41-2.89-7.09,1.6.66,2.93,1.82,4.66,2.14,1.05.19,1.86-.2,2.1-1.26.76-3.3-3.38-4.77-6.23-4.84,1.38-.96,5.33-3.56,3.23-4.84-2.13-1.29-6.76,2.44-8.27,3.67-2.22,1.8-4.87,4.5-4.97,7.32-.13,3.29,2.75,1.27,4.48.58Z"/>
            <path class="cls-6" d="M47.27,225.27c2.87-1.31,8.4.57,8.87-.51.95-2.21-3.46-3.73-5.84-4.03,2.19-.59,6.4-1.54,6.27-3.66-.16-2.58-6.45-.36-9.63,2.08-4.01,3.07-3.98,6.04-3.32,6.64.91.82,3.19-.3,3.66-.52Z"/>
          </g>
        </g>
        <g>
          <path class="cls-1" d="M15.7,221.96c13.55,12.29,16.49,31.98,14.4,49.41-.06.4-.67.31-.68-.06-.15-3.94-.18-7.86-.34-11.75-.08-.18-.14-.34-.22-.52-3.5-2.35-6.74-5.03-8.83-8.79-2.34-4.21-3.39-9.01-5.22-13.43-.17-.42.29-.31.6-.11,8.17,5.56,10.94,11.76,13.54,20.1-.27-4.37-.77-8.73-1.88-13.07-2.02-7.93-5.72-15.72-11.69-21.44-.22-.22.1-.58.33-.36Z"/>
          <g>
            <path class="cls-6" d="M13.3,223.54c-2.24.16-3.52,3.81-5.23,4.92-.9.59-1.81.59-2.49-.3-1.83-2.36.44-5.43,2.61-7.19-1.58.72-2.86,1.93-4.57,2.32-1.04.23-1.87-.13-2.15-1.18-.89-3.27,3.2-4.9,6.04-5.08-1.41-.91-5.46-3.36-3.41-4.72,2.08-1.37,6.85,2.18,8.41,3.35,2.29,1.72,5.04,4.31,5.25,7.12.26,3.28-2.7,1.37-4.45.75Z"/>
            <path class="cls-11" d="M13.3,223.54c-2.24.16-3.52,3.81-5.23,4.92-.9.59-1.81.59-2.49-.3-1.83-2.36.44-5.43,2.61-7.19-1.58.72-2.86,1.93-4.57,2.32-1.04.23-1.87-.13-2.15-1.18-.89-3.27,3.2-4.9,6.04-5.08-1.41-.91-5.46-3.36-3.41-4.72,2.08-1.37,6.85,2.18,8.41,3.35,2.29,1.72,5.04,4.31,5.25,7.12.26,3.28-2.7,1.37-4.45.75Z"/>
            <path class="cls-6" d="M13.97,224.07c-2.92-1.2-8.37.89-8.88-.18-1.04-2.18,3.32-3.86,5.69-4.25-2.21-.51-6.45-1.3-6.4-3.42.06-2.59,6.43-.61,9.7,1.71,4.12,2.92,4.21,5.89,3.57,6.51-.88.85-3.19-.18-3.68-.38Z"/>
          </g>
        </g>
        <g>
          <path class="cls-1" d="M29.55,254.41c1,6.48,2.24,13.17,4.21,19.43.19.57,1.03.42.95-.19-.89-5.99-2.51-11.86-3.4-17.85-.9-6.06-1.39-12.2-1.04-18.33.57-10.09,3.31-20.82,9.89-28.72.14-.19-.16-.45-.31-.28-13.18,15.37-11.08,34.21-11.07,35.9-1.87-6.36-3.79-13.66-10.85-20.13-.3-.28-.54-.15-.49.33,1.26,11.8,4.54,17.96,11.38,24.27.19,1.87.44,3.73.73,5.57Z"/>
          <g>
            <path class="cls-6" d="M40.27,210.52c2.37-1.05,5.64,1.97,7.99,2.17,1.24.11,2.16-.38,2.38-1.65.58-3.39-3.39-5.29-6.56-5.9,1.99-.12,3.95.41,5.91-.12,1.18-.33,1.83-1.14,1.55-2.37-.87-3.81-5.91-3.25-8.9-1.89.95-1.69,3.74-6.38.91-6.65-2.85-.26-5.79,5.93-6.74,7.97-1.4,2.99-2.79,7.12-1.48,10.1,1.52,3.48,3.49-.07,4.94-1.66Z"/>
            <path class="cls-11" d="M40.27,210.52c2.37-1.05,5.64,1.97,7.99,2.17,1.24.11,2.16-.38,2.38-1.65.58-3.39-3.39-5.29-6.56-5.9,1.99-.12,3.95.41,5.91-.12,1.18-.33,1.83-1.14,1.55-2.37-.87-3.81-5.91-3.25-8.9-1.89.95-1.69,3.74-6.38.91-6.65-2.85-.26-5.79,5.93-6.74,7.97-1.4,2.99-2.79,7.12-1.48,10.1,1.52,3.48,3.49-.07,4.94-1.66Z"/>
            <path class="cls-6" d="M39.88,211.43c2.32-2.8,9-3.63,8.94-5-.13-2.78-5.47-2.13-8.09-1.24,1.98-1.72,5.86-4.82,4.66-6.95-1.46-2.6-6.87,2.87-8.95,7-2.61,5.21-1.09,8.27-.11,8.56,1.35.39,3.15-1.92,3.54-2.38Z"/>
          </g>
        </g>
        <path class="cls-6" d="M20.88,257.96l-5.81,44.42h35.37c-.73-3.94-7.31-44.47-7.31-44.47l-22.25.05Z"/>
      </g>
      <polygon class="cls-2" points="0 302.53 51.66 302.29 103.31 302.2 206.63 302.03 309.94 302.2 361.6 302.29 413.25 302.53 361.6 302.77 309.94 302.86 206.63 303.03 103.31 302.86 51.66 302.77 0 302.53"/>
      <ellipse class="cls-10" cx="206.63" cy="368.43" rx="149.06" ry="21.08"/>
      <g>
        <path class="cls-1" d="M114.2,147.06l-6.21-24.43-49.04,12.46-6.48-25.5L91.66,20.28l19.44-4.94,18.9,74.36,15.69-3.99,6.53,25.68-15.69,3.99,6.21,24.43-28.53,7.25ZM80.6,102.25l24.25-6.16-8.02-31.56-16.23,37.73Z"/>
        <path class="cls-1" d="M254.65,65.5c0,8.1-1.23,15.55-3.68,22.35-2.46,6.81-5.83,12.7-10.12,17.66-4.29,4.97-9.35,8.83-15.18,11.59-5.83,2.76-12.18,4.14-19.04,4.14s-13.25-1.38-19.13-4.14c-5.89-2.76-10.98-6.62-15.27-11.59-4.29-4.97-7.64-10.86-10.03-17.66-2.39-6.81-3.59-14.26-3.59-22.35s1.2-15.55,3.59-22.35c2.39-6.81,5.73-12.7,10.03-17.66,4.29-4.97,9.38-8.86,15.27-11.68,5.89-2.82,12.26-4.23,19.13-4.23s13.22,1.41,19.04,4.23c5.82,2.82,10.88,6.72,15.18,11.68,4.29,4.97,7.67,10.86,10.12,17.66,2.45,6.81,3.68,14.26,3.68,22.35ZM225.02,65.5c0-8.58-1.72-15.55-5.15-20.88-3.44-5.34-7.85-8-13.25-8s-10.15,2.67-13.52,8c-3.37,5.34-5.06,12.3-5.06,20.88s1.68,15.52,5.06,20.79c3.37,5.28,7.88,7.91,13.52,7.91s9.81-2.64,13.25-7.91c3.43-5.27,5.15-12.2,5.15-20.79Z"/>
        <path class="cls-1" d="M307.47,142.35l4.03-24.88-49.95-8.09,4.21-25.97,71.51-66.33,19.8,3.21-12.27,75.74,15.98,2.59-4.24,26.15-15.98-2.59-4.03,24.88-29.06-4.71ZM294.49,87.87l24.7,4,5.21-32.15-29.91,28.15Z"/>
      </g>
      <g>
        <g>
          <rect class="cls-3" x="191.71" y="233.23" width="35.51" height="2.91"/>
          <rect class="cls-3" x="191.71" y="237.02" width="35.51" height="2.91"/>
          <rect class="cls-3" x="191.71" y="240.81" width="35.51" height="2.91"/>
          <rect class="cls-3" x="191.71" y="244.6" width="35.51" height="2.91"/>
          <rect class="cls-3" x="191.71" y="248.39" width="35.51" height="2.91"/>
        </g>
        <g>
          <rect class="cls-3" x="175.08" y="323.98" width="67.52" height="2.91"/>
          <rect class="cls-3" x="175.08" y="327.77" width="67.52" height="2.91"/>
          <rect class="cls-3" x="175.08" y="331.56" width="67.52" height="2.91"/>
          <rect class="cls-3" x="175.08" y="335.35" width="67.52" height="2.91"/>
          <rect class="cls-3" x="175.08" y="339.14" width="67.52" height="2.91"/>
        </g>
        <g>
          <g>
            <path class="cls-6" d="M145.46,209.18c.03-.39-14.78-5.35-14.78-5.35l.87-50.89,19.64-4.21-5.74,60.45Z"/>
            <path class="cls-8" d="M145.46,209.18c.03-.39-14.78-5.35-14.78-5.35l.87-50.89,19.64-4.21-5.74,60.45Z"/>
          </g>
          <g>
            <path class="cls-6" d="M281.12,229.16c.1-.38,15.72.06,15.72.06l16.69-48.08-16.99-10.72-15.42,58.74Z"/>
            <path class="cls-8" d="M281.12,229.16c.1-.38,15.72.06,15.72.06l16.69-48.08-16.99-10.72-15.42,58.74Z"/>
          </g>
          <path class="cls-6" d="M142.61,227.92s5.49-82.3,10.31-109.37c0,0,99.42,7.52,153.09,28.03,0,0-27.67,96.13-29.1,100.9,0,0-70.01-13.79-134.29-19.56Z"/>
          <g>
            <path class="cls-11" d="M231.35,129.54c-1.62,9.91-3.25,19.82-4.94,29.71l-5.12,29.68-.28-.42,33.31,7.91,16.64,4.03,16.62,4.11-16.71-3.74-16.69-3.82-33.34-7.79-.34-.08.06-.34,5.31-29.65c1.78-9.88,3.62-19.75,5.48-29.62Z"/>
            <path class="cls-11" d="M227.69,135.19c.02.91-.71,1.84-1.75,1.93-.5.05-1.05-.11-1.46-.47-.41-.36-.66-.91-.66-1.46,0-.56.25-1.11.66-1.46.41-.36.96-.52,1.46-.47,1.04.09,1.76,1.03,1.75,1.93ZM227.69,135.19c0-.46-.21-.91-.55-1.2-.34-.29-.79-.41-1.2-.36-.84.1-1.38.85-1.37,1.56-.01.71.53,1.46,1.37,1.56.41.05.86-.07,1.2-.36.34-.29.54-.74.55-1.2Z"/>
            <path class="cls-11" d="M225.95,147.44c.02.91-.71,1.84-1.75,1.93-.5.05-1.05-.11-1.46-.47-.41-.36-.66-.91-.66-1.46,0-.56.25-1.11.66-1.46.41-.36.96-.52,1.46-.47,1.04.09,1.76,1.03,1.75,1.93ZM225.95,147.44c0-.46-.21-.91-.55-1.2-.34-.29-.79-.41-1.2-.36-.84.1-1.38.85-1.37,1.56-.01.71.53,1.46,1.37,1.56.41.05.86-.07,1.2-.36.34-.29.54-.74.55-1.2Z"/>
            <path class="cls-11" d="M223.8,160.37c.02.91-.71,1.84-1.75,1.93-.5.05-1.05-.11-1.46-.47-.41-.36-.66-.91-.66-1.46,0-.55.25-1.11.66-1.46.41-.36.96-.52,1.46-.47,1.04.09,1.76,1.03,1.75,1.93ZM223.8,160.37c0-.46-.21-.91-.55-1.2-.34-.29-.79-.41-1.2-.36-.84.1-1.38.85-1.37,1.56-.01.71.53,1.46,1.37,1.56.41.05.86-.07,1.2-.36.34-.29.54-.74.55-1.2Z"/>
            <path class="cls-11" d="M221.65,173.31c.02.91-.71,1.84-1.75,1.93-.5.05-1.05-.11-1.46-.47-.41-.36-.66-.91-.66-1.46,0-.56.25-1.11.66-1.46.41-.36.96-.52,1.46-.47,1.04.09,1.76,1.03,1.75,1.93ZM221.65,173.31c0-.46-.21-.91-.55-1.2-.34-.29-.79-.41-1.2-.36-.84.1-1.38.85-1.37,1.56-.01.71.53,1.46,1.37,1.56.41.05.86-.07,1.2-.36.34-.29.54-.74.55-1.2Z"/>
            <path class="cls-11" d="M228.97,193.95c.02.91-.71,1.84-1.75,1.93-.5.05-1.05-.11-1.46-.47-.41-.36-.66-.91-.66-1.46,0-.56.25-1.11.66-1.46.41-.36.96-.52,1.46-.47,1.04.09,1.76,1.03,1.75,1.93ZM228.97,193.95c0-.46-.21-.91-.55-1.2-.34-.29-.79-.41-1.2-.36-.84.1-1.38.85-1.37,1.56-.01.71.53,1.46,1.37,1.56.41.05.86-.07,1.2-.36.34-.29.54-.74.55-1.2Z"/>
            <path class="cls-11" d="M241.19,196.93c.02.91-.71,1.84-1.75,1.93-.5.05-1.05-.11-1.46-.47-.41-.36-.66-.91-.66-1.46,0-.56.25-1.11.66-1.46.41-.36.96-.52,1.46-.47,1.04.09,1.76,1.03,1.75,1.93ZM241.19,196.93c0-.46-.21-.91-.55-1.2-.34-.29-.79-.41-1.2-.36-.84.1-1.38.85-1.37,1.56-.01.71.53,1.46,1.37,1.56.41.05.86-.07,1.2-.36.34-.29.54-.74.55-1.2Z"/>
            <path class="cls-11" d="M253.4,199.91c.02.91-.71,1.84-1.75,1.93-.5.05-1.05-.11-1.46-.47-.41-.36-.66-.91-.66-1.46,0-.56.25-1.11.66-1.46.41-.36.96-.52,1.46-.47,1.04.09,1.76,1.03,1.75,1.93ZM253.4,199.91c0-.46-.21-.91-.55-1.2-.34-.29-.79-.41-1.2-.36-.84.1-1.38.85-1.37,1.56-.01.71.53,1.46,1.37,1.56.41.05.86-.07,1.2-.36.34-.29.54-.74.55-1.2Z"/>
            <path class="cls-11" d="M265.61,202.89c.02.91-.71,1.84-1.75,1.93-.5.05-1.05-.11-1.46-.47-.41-.36-.66-.91-.66-1.46,0-.56.25-1.11.66-1.46.41-.36.96-.52,1.46-.47,1.04.09,1.76,1.03,1.75,1.93ZM265.61,202.89c0-.46-.21-.91-.55-1.2-.34-.29-.79-.41-1.2-.36-.84.1-1.38.85-1.37,1.56-.01.71.53,1.46,1.37,1.56.41.05.86-.07,1.2-.36.34-.29.54-.74.55-1.2Z"/>
            <path class="cls-11" d="M277.82,206c-.05.91-.85,1.78-1.89,1.79-.51,0-1.04-.19-1.42-.58-.38-.39-.58-.95-.54-1.51.05-.55.33-1.08.77-1.41.44-.33,1-.44,1.5-.36,1.03.17,1.68,1.16,1.59,2.06ZM277.82,206c.03-.46-.14-.92-.45-1.24-.32-.31-.76-.47-1.17-.45-.84.03-1.44.74-1.49,1.45-.07.7.42,1.5,1.25,1.66.4.08.86,0,1.22-.27.36-.26.6-.7.64-1.15Z"/>
            <path class="cls-11" d="M219.5,186.25c.02.91-.71,1.84-1.75,1.93-.5.05-1.05-.11-1.46-.47-.41-.36-.66-.91-.66-1.46,0-.56.25-1.11.66-1.46.41-.36.96-.52,1.46-.47,1.04.09,1.76,1.03,1.75,1.93ZM219.5,186.25c0-.46-.21-.91-.55-1.2-.34-.29-.79-.41-1.2-.36-.84.1-1.38.85-1.37,1.56-.01.71.53,1.46,1.37,1.56.41.05.86-.07,1.2-.36.34-.29.54-.74.55-1.2Z"/>
          </g>
          <g>
            <g>
              <circle class="cls-8" cx="180.06" cy="186.7" r="28.23" transform="translate(-78.66 168.26) rotate(-41.96)"/>
              <circle class="cls-1" cx="180.06" cy="186.7" r="22.64" transform="translate(-58.29 289) rotate(-69.27)"/>
              <g>
                <rect class="cls-6" x="172.93" y="177.92" width="5.36" height="5.36" transform="translate(31.14 -25.76) rotate(9.2)"/>
                <rect class="cls-6" x="168.5" y="171.77" width="5.36" height="5.36" transform="translate(30.1 -25.13) rotate(9.2)"/>
                <rect class="cls-6" x="189.67" y="175.2" width="5.36" height="5.36" transform="translate(30.92 -28.47) rotate(9.2)"/>
                <rect class="cls-6" x="165.09" y="192.83" width="5.36" height="5.36" transform="translate(33.42 -24.31) rotate(9.2)"/>
                <rect class="cls-6" x="186.26" y="196.26" width="5.36" height="5.36" transform="translate(34.25 -27.66) rotate(9.2)"/>
                <rect class="cls-6" x="171.24" y="188.39" width="5.36" height="5.36" transform="translate(32.79 -25.35) rotate(9.2)"/>
                <rect class="cls-6" x="177.38" y="184.01" width="5.36" height="5.36" transform="translate(32.17 -26.39) rotate(9.2)"/>
                <rect class="cls-6" x="183.52" y="179.64" width="5.36" height="5.36" transform="translate(31.55 -27.43) rotate(9.2)"/>
                <rect class="cls-6" x="181.82" y="190.11" width="5.36" height="5.36" transform="translate(33.21 -27.03) rotate(9.2)"/>
              </g>
            </g>
            <g>
              <g>
                <circle class="cls-6" cx="255.82" cy="198.53" r="28.23" transform="translate(-59.88 270.57) rotate(-50.67)"/>
                <circle class="cls-8" cx="255.82" cy="198.53" r="28.23" transform="translate(-59.88 270.57) rotate(-50.67)"/>
                <path class="cls-8" d="M283.29,205.06c-.13.56-.28,1.09-.44,1.63l-55.03-11.74c.13-.98.31-1.96.54-2.96,3.6-15.17,18.82-24.54,34-20.94,15.17,3.6,24.54,18.82,20.94,34Z"/>
              </g>
              <circle class="cls-1" cx="255.82" cy="198.53" r="22.64" transform="translate(-56.76 113.97) rotate(-22.68)"/>
              <rect class="cls-6" x="253.14" y="185.18" width="5.36" height="26.69" transform="translate(52.84 -53.77) rotate(13.37)"/>
              <g>
                <path class="cls-6" d="M284.92,204.53l-57.8-13.74c3.79-15.96,19.81-25.82,35.77-22.03,15.96,3.79,25.83,19.8,22.03,35.76Z"/>
                <path class="cls-8" d="M284.92,204.53l-57.8-13.74c3.79-15.96,19.81-25.82,35.77-22.03,15.96,3.79,25.83,19.8,22.03,35.76Z"/>
              </g>
            </g>
            <path class="cls-11" d="M206.7,215.31c.15-2.26.98-4.55,2.61-6.36.81-.91,1.88-1.63,3.07-2.06,1.19-.44,2.48-.52,3.7-.41,1.24.15,2.51.58,3.55,1.37,1.02.8,1.79,1.84,2.25,2.97.94,2.24,1.05,4.63.59,6.85-.38-2.22-.95-4.37-1.99-6.14-1.03-1.78-2.67-2.89-4.61-3.06-1.99-.25-3.92.29-5.48,1.6-1.56,1.32-2.75,3.2-3.68,5.24Z"/>
          </g>
          <g>
            <path class="cls-4" d="M150.34,157.73c.23-3.02.57-6.02.86-9.03.32-3,.65-6.01,1.02-9,.35-3,.74-5.99,1.12-8.99.38-3,.81-5.98,1.21-8.98l.11-.8.81.05c6.51.41,13.01.94,19.5,1.6,3.25.33,6.49.71,9.72,1.13,3.23.46,6.47.89,9.68,1.48l-19.52-1.21-19.5-1.26.92-.75c-.44,2.99-.85,5.98-1.32,8.96-.46,2.98-.92,5.97-1.41,8.95-.48,2.98-.99,5.96-1.52,8.93-.56,2.97-1.07,5.95-1.68,8.91Z"/>
            <path class="cls-4" d="M155.04,180.54c.66-3.63,2.3-7.08,4.52-10.09.55-.76,1.18-1.46,1.78-2.18.65-.67,1.33-1.33,2-1.99.73-.59,1.47-1.18,2.22-1.75.8-.51,1.58-1.03,2.39-1.52.85-.41,1.7-.83,2.56-1.22l2.68-.93,2.78-.57c.93-.14,1.88-.16,2.81-.24,3.76-.1,7.47.71,10.87,2.08-3.62-.68-7.23-1.05-10.78-.71-3.55.33-6.99,1.39-10.07,3.13-3.11,1.69-5.85,4.03-8.18,6.75-2.31,2.73-4.23,5.82-5.59,9.24Z"/>
            <path class="cls-4" d="M232.91,188.17c1.15-3.5,3.26-6.7,5.87-9.37.65-.67,1.37-1.28,2.06-1.91.74-.58,1.5-1.13,2.26-1.69.81-.49,1.62-.97,2.44-1.43.86-.39,1.71-.8,2.58-1.17.9-.29,1.8-.59,2.71-.86l2.78-.55,2.83-.18c.94,0,1.88.1,2.82.16,3.74.42,7.3,1.73,10.48,3.56-3.49-1.17-7.01-2.04-10.58-2.2-3.56-.16-7.12.41-10.41,1.71-3.31,1.25-6.36,3.19-9.03,5.55-2.67,2.38-4.99,5.18-6.81,8.38Z"/>
          </g>
        </g>
        <g>
          <g>
            <g>
              <path class="cls-6" d="M145.77,278.64c-7.23,0-23.06-1.63-33.25-14.72-13.03-16.76-8.32-48.91-8.12-50.28l5.66.86c-.05.31-4.54,31.09,6.98,45.9,11.26,14.48,31.69,12.4,31.9,12.38l.64,5.69c-.22.03-1.62.17-3.81.17Z"/>
              <path class="cls-5" d="M145.77,278.64c-7.23,0-23.06-1.63-33.25-14.72-13.03-16.76-8.32-48.91-8.12-50.28l5.66.86c-.05.31-4.54,31.09,6.98,45.9,11.26,14.48,31.69,12.4,31.9,12.38l.64,5.69c-.22.03-1.62.17-3.81.17Z"/>
            </g>
            <path class="cls-6" d="M111.72,218.39c-1.03,0-2.09-.09-3.16-.26-9.55-1.55-13.77-7.26-15.64-11.78-1.87-4.53-2.3-10.01-1.28-16.29l12.11,1.96c-.63,3.89-.45,7.31.52,9.65.69,1.66,2.02,3.66,6.26,4.35,1.94.31,4.03.15,6.23-3.16,1.69-2.55,2.71-6.03,3.07-8.23l12.11,1.96c-.28,1.73-1.47,7.79-4.95,13.05-3.79,5.72-9.13,8.75-15.25,8.75Z"/>
            <g>
              <path class="cls-6" d="M157.73,295.02c-.02-.26-10.26-1.9-10.26-1.9l-4.97-33.41,12.4-4.9,2.83,40.2Z"/>
              <path class="cls-8" d="M157.73,295.02c-.02-.26-10.26-1.9-10.26-1.9l-4.97-33.41,12.4-4.9,2.83,40.2Z"/>
            </g>
          </g>
          <g>
            <path class="cls-6" d="M258.92,295.08c.03-.26,10.3-1.67,10.3-1.67l5.71-33.29-12.29-5.17-3.72,40.13Z"/>
            <path class="cls-8" d="M258.92,295.08c.03-.26,10.3-1.67,10.3-1.67l5.71-33.29-12.29-5.17-3.72,40.13Z"/>
          </g>
          <path class="cls-6" d="M153.47,247.34s82.79-3.54,110.75,1.12c0,0-8.21,80.11-8.66,81.66,0,0-82.35-.22-95.22,0,0,0-6.98-53.27-6.87-82.78Z"/>
          <g>
            <path class="cls-8" d="M178.61,269.29s45.19-1.78,60.46.57c0,0-4.48,40.39-4.73,41.18,0,0-44.96-.11-51.98,0,0,0-3.09-27.65-3.75-41.74Z"/>
            <path class="cls-8" d="M184.79,311.02c-1.03,0-1.86.01-2.43.02,0,0-3.08-27.65-3.75-41.75,0,0,1.03-.04,2.82-.1l3.36,41.83Z"/>
            <g>
              <path class="cls-6" d="M198.12,279.26c-2.53-.8-5.23.61-6.03,3.14-.8,2.54.61,5.23,3.14,6.03,2.53.8,5.23-.61,6.02-3.14.8-2.53-.61-5.23-3.14-6.03ZM200.7,285.11c-.7,2.23-3.07,3.46-5.29,2.76-2.22-.7-3.46-3.07-2.76-5.3.7-2.22,3.07-3.46,5.3-2.76,2.22.7,3.45,3.07,2.75,5.29ZM198.12,279.26c-2.53-.8-5.23.61-6.03,3.14-.8,2.54.61,5.23,3.14,6.03,2.53.8,5.23-.61,6.02-3.14.8-2.53-.61-5.23-3.14-6.03ZM200.7,285.11c-.7,2.23-3.07,3.46-5.29,2.76-2.22-.7-3.46-3.07-2.76-5.3.7-2.22,3.07-3.46,5.3-2.76,2.22.7,3.45,3.07,2.75,5.29ZM198.12,279.26c-2.53-.8-5.23.61-6.03,3.14-.8,2.54.61,5.23,3.14,6.03,2.53.8,5.23-.61,6.02-3.14.8-2.53-.61-5.23-3.14-6.03ZM200.7,285.11c-.7,2.23-3.07,3.46-5.29,2.76-2.22-.7-3.46-3.07-2.76-5.3.7-2.22,3.07-3.46,5.3-2.76,2.22.7,3.45,3.07,2.75,5.29ZM199.72,274.18c-5.34-1.68-11.03,1.29-12.71,6.62-1.68,5.34,1.28,11.03,6.62,12.71,5.33,1.68,11.02-1.28,12.71-6.62,1.68-5.33-1.28-11.03-6.61-12.71ZM201.97,285.51c-.92,2.92-4.04,4.55-6.97,3.63-2.92-.92-4.55-4.04-3.63-6.97.92-2.92,4.05-4.55,6.97-3.63,2.92.92,4.55,4.04,3.63,6.96ZM201.26,285.29c.8-2.53-.61-5.23-3.14-6.03-2.53-.8-5.23.61-6.03,3.14-.8,2.54.61,5.23,3.14,6.03,2.53.8,5.23-.61,6.02-3.14ZM200.7,285.11c-.7,2.23-3.07,3.46-5.29,2.76-2.22-.7-3.46-3.07-2.76-5.3.7-2.22,3.07-3.46,5.3-2.76,2.22.7,3.45,3.07,2.75,5.29ZM198.12,279.26c-2.53-.8-5.23.61-6.03,3.14-.8,2.54.61,5.23,3.14,6.03,2.53.8,5.23-.61,6.02-3.14.8-2.53-.61-5.23-3.14-6.03ZM200.7,285.11c-.7,2.23-3.07,3.46-5.29,2.76-2.22-.7-3.46-3.07-2.76-5.3.7-2.22,3.07-3.46,5.3-2.76,2.22.7,3.45,3.07,2.75,5.29ZM198.12,279.26c-2.53-.8-5.23.61-6.03,3.14-.8,2.54.61,5.23,3.14,6.03,2.53.8,5.23-.61,6.02-3.14.8-2.53-.61-5.23-3.14-6.03ZM200.7,285.11c-.7,2.23-3.07,3.46-5.29,2.76-2.22-.7-3.46-3.07-2.76-5.3.7-2.22,3.07-3.46,5.3-2.76,2.22.7,3.45,3.07,2.75,5.29Z"/>
              <g>
                <polygon class="cls-6" points="195.61 293.69 191.9 292.52 191.28 295.22 194.58 296.26 195.61 293.69"/>
                <polygon class="cls-6" points="188.94 290.21 187.14 286.76 184.79 288.22 186.39 291.29 188.94 290.21"/>
                <polygon class="cls-6" points="186.68 283.03 187.85 279.31 185.15 278.69 184.11 281.99 186.68 283.03"/>
                <polygon class="cls-6" points="190.16 276.35 193.61 274.55 192.15 272.21 189.07 273.81 190.16 276.35"/>
                <polygon class="cls-6" points="197.34 274.09 201.05 275.26 201.68 272.57 198.37 271.53 197.34 274.09"/>
                <polygon class="cls-6" points="204.02 277.57 205.82 281.03 208.16 279.56 206.56 276.49 204.02 277.57"/>
                <polygon class="cls-6" points="206.28 284.75 205.11 288.47 207.8 289.09 208.84 285.79 206.28 284.75"/>
                <polygon class="cls-6" points="202.8 291.43 199.34 293.23 200.81 295.58 203.88 293.98 202.8 291.43"/>
              </g>
            </g>
            <g>
              <path class="cls-9" d="M214.46,293.4c-1.5-.98-3.5-.55-4.48.95-.98,1.5-.55,3.5.95,4.48,1.5.98,3.5.55,4.48-.95.97-1.5.55-3.5-.94-4.48ZM215.08,297.66c-.86,1.32-2.62,1.69-3.93.83-1.32-.86-1.69-2.62-.83-3.93.86-1.32,2.62-1.69,3.93-.83,1.31.86,1.69,2.61.83,3.93ZM214.46,293.4c-1.5-.98-3.5-.55-4.48.95-.98,1.5-.55,3.5.95,4.48,1.5.98,3.5.55,4.48-.95.97-1.5.55-3.5-.94-4.48ZM215.08,297.66c-.86,1.32-2.62,1.69-3.93.83-1.32-.86-1.69-2.62-.83-3.93.86-1.32,2.62-1.69,3.93-.83,1.31.86,1.69,2.61.83,3.93ZM214.46,293.4c-1.5-.98-3.5-.55-4.48.95-.98,1.5-.55,3.5.95,4.48,1.5.98,3.5.55,4.48-.95.97-1.5.55-3.5-.94-4.48ZM215.08,297.66c-.86,1.32-2.62,1.69-3.93.83-1.32-.86-1.69-2.62-.83-3.93.86-1.32,2.62-1.69,3.93-.83,1.31.86,1.69,2.61.83,3.93ZM216.42,290.4c-3.16-2.06-7.38-1.16-9.44,1.99-2.05,3.16-1.16,7.38,1.99,9.44,3.16,2.05,7.38,1.16,9.44-2,2.06-3.15,1.16-7.38-1.99-9.44ZM215.83,298.15c-1.13,1.73-3.45,2.22-5.17,1.09-1.73-1.12-2.22-3.45-1.09-5.17,1.13-1.73,3.45-2.22,5.17-1.09,1.73,1.12,2.22,3.44,1.09,5.17ZM215.41,297.88c.97-1.5.55-3.5-.94-4.48-1.5-.98-3.5-.55-4.48.95-.98,1.5-.55,3.5.95,4.48,1.5.98,3.5.55,4.48-.95ZM215.08,297.66c-.86,1.32-2.62,1.69-3.93.83-1.32-.86-1.69-2.62-.83-3.93.86-1.32,2.62-1.69,3.93-.83,1.31.86,1.69,2.61.83,3.93ZM214.46,293.4c-1.5-.98-3.5-.55-4.48.95-.98,1.5-.55,3.5.95,4.48,1.5.98,3.5.55,4.48-.95.97-1.5.55-3.5-.94-4.48ZM215.08,297.66c-.86,1.32-2.62,1.69-3.93.83-1.32-.86-1.69-2.62-.83-3.93.86-1.32,2.62-1.69,3.93-.83,1.31.86,1.69,2.61.83,3.93ZM214.46,293.4c-1.5-.98-3.5-.55-4.48.95-.98,1.5-.55,3.5.95,4.48,1.5.98,3.5.55,4.48-.95.97-1.5.55-3.5-.94-4.48ZM215.08,297.66c-.86,1.32-2.62,1.69-3.93.83-1.32-.86-1.69-2.62-.83-3.93.86-1.32,2.62-1.69,3.93-.83,1.31.86,1.69,2.61.83,3.93Z"/>
              <g>
                <polygon class="cls-9" points="210.23 302.3 208.03 300.87 207.14 302.51 209.09 303.78 210.23 302.3"/>
                <polygon class="cls-9" points="206.52 298.84 205.98 296.27 204.2 296.8 204.68 299.08 206.52 298.84"/>
                <polygon class="cls-9" points="206.36 293.77 207.79 291.58 206.15 290.68 204.88 292.64 206.36 293.77"/>
                <polygon class="cls-9" points="209.82 290.07 212.39 289.53 211.86 287.74 209.58 288.23 209.82 290.07"/>
                <polygon class="cls-9" points="214.89 289.91 217.09 291.34 217.98 289.7 216.02 288.43 214.89 289.91"/>
                <polygon class="cls-9" points="218.59 293.37 219.13 295.94 220.92 295.41 220.44 293.13 218.59 293.37"/>
                <polygon class="cls-9" points="218.76 298.44 217.33 300.63 218.96 301.53 220.23 299.57 218.76 298.44"/>
                <polygon class="cls-9" points="215.29 302.14 212.73 302.68 213.25 304.47 215.53 303.98 215.29 302.14"/>
              </g>
            </g>
          </g>
          <g>
            <polygon class="cls-6" points="262.22 320.8 265.4 321.39 274.5 259.77 270.88 259.1 262.22 320.8"/>
            <g>
              <path class="cls-6" d="M234.35,311.03l4.73-41.18,31.8-10.76s-8.66,62.37-8.66,61.7l-27.87-9.77Z"/>
              <path class="cls-5" d="M234.35,311.03l4.73-41.18,31.8-10.76s-8.66,62.37-8.66,61.7l-27.87-9.77Z"/>
            </g>
          </g>
          <path class="cls-4" d="M157.27,271.53c-.52-3.41-.8-6.85-1.01-10.29-.1-1.72-.14-3.45-.18-5.17-.03-1.72-.06-3.45-.01-5.17v-.45s.45-.02.45-.02c6.32-.34,12.63-.75,18.95-1.03,6.32-.31,12.64-.6,18.96-.79-6.3.57-12.61,1.06-18.92,1.51-6.31.49-12.62.85-18.93,1.28l.45-.48-.03,5.15.06,5.15c0,1.72.04,3.44.09,5.16l.11,5.16Z"/>
          <path class="cls-4" d="M243.51,270.46c1.97-.94,3.97-1.81,6-2.61,2.02-.82,4.06-1.6,6.12-2.31,2.06-.7,4.13-1.39,6.24-1.98,2.1-.59,4.22-1.14,6.39-1.49l.53-.09-.1.51c-.5,2.67-1.02,5.33-1.64,7.98.23-2.71.56-5.4.91-8.09l.44.42c-2.1.5-4.18,1.09-6.26,1.7-2.08.62-4.15,1.27-6.21,1.95l-12.42,4.02Z"/>
          <g>
            <polygon class="cls-11" points="171.03 247.51 171.56 257.81 172.02 268.11 172.82 288.72 173.44 309.33 173.69 319.64 173.86 329.95 173.32 319.65 172.86 309.35 172.07 288.74 171.45 268.13 171.2 257.82 171.03 247.51"/>
            <path class="cls-11" d="M168.08,253.72c.2.89-.33,1.94-1.33,2.24-.48.15-1.05.1-1.53-.17-.47-.27-.82-.76-.93-1.3-.11-.54.02-1.13.35-1.56.33-.43.84-.7,1.34-.75,1.04-.12,1.93.66,2.09,1.55ZM168.08,253.72c-.09-.45-.38-.85-.77-1.07-.39-.22-.86-.24-1.24-.12-.8.26-1.19,1.11-1.04,1.8.13.7.81,1.33,1.65,1.26.41-.03.83-.24,1.1-.59.28-.35.39-.83.3-1.28Z"/>
            <path class="cls-11" d="M168.79,266.07c.2.89-.33,1.94-1.33,2.24-.48.15-1.05.1-1.53-.17-.47-.27-.82-.76-.93-1.3-.11-.54.02-1.13.35-1.56.33-.43.84-.7,1.34-.75,1.04-.12,1.93.66,2.09,1.55ZM168.79,266.07c-.09-.45-.38-.85-.77-1.07-.39-.22-.86-.24-1.24-.12-.8.26-1.19,1.11-1.04,1.8.13.7.81,1.33,1.65,1.26.41-.03.83-.24,1.1-.59.28-.35.39-.83.3-1.28Z"/>
            <path class="cls-11" d="M169.24,279.17c.2.89-.33,1.94-1.33,2.24-.48.15-1.05.1-1.53-.17-.47-.27-.82-.76-.93-1.3-.11-.54.02-1.13.36-1.56.33-.43.84-.7,1.34-.75,1.04-.12,1.93.66,2.09,1.55ZM169.24,279.17c-.09-.45-.38-.85-.77-1.07-.39-.22-.86-.24-1.24-.12-.8.26-1.19,1.11-1.04,1.8.13.7.81,1.33,1.65,1.26.41-.03.83-.24,1.1-.59.28-.35.39-.83.3-1.28Z"/>
            <path class="cls-11" d="M169.69,292.28c.2.89-.33,1.94-1.33,2.24-.48.15-1.05.1-1.53-.17-.47-.27-.82-.76-.93-1.3-.11-.54.02-1.13.35-1.56.33-.43.84-.7,1.34-.75,1.04-.12,1.93.66,2.09,1.55ZM169.69,292.28c-.09-.45-.38-.85-.77-1.07-.39-.22-.86-.24-1.24-.12-.8.26-1.19,1.11-1.04,1.8.13.7.81,1.33,1.65,1.26.41-.03.83-.24,1.1-.59.28-.35.39-.83.3-1.28Z"/>
            <path class="cls-11" d="M170.14,305.39c.2.89-.33,1.94-1.33,2.24-.48.15-1.05.1-1.53-.17-.47-.27-.82-.76-.93-1.3-.11-.54.02-1.13.35-1.56.33-.43.84-.7,1.34-.75,1.04-.12,1.93.66,2.09,1.55ZM170.14,305.39c-.09-.45-.38-.85-.77-1.07-.39-.22-.86-.24-1.24-.12-.8.26-1.19,1.11-1.04,1.8.13.7.81,1.33,1.65,1.26.41-.03.83-.24,1.1-.59.28-.35.39-.83.3-1.28Z"/>
            <path class="cls-11" d="M170.59,318.5c.2.89-.33,1.94-1.33,2.24-.48.15-1.05.1-1.53-.17-.47-.27-.82-.76-.93-1.3-.11-.54.02-1.13.35-1.56.33-.43.84-.7,1.34-.75,1.04-.12,1.93.66,2.09,1.55ZM170.59,318.5c-.09-.45-.38-.85-.77-1.07-.39-.22-.86-.24-1.24-.12-.8.26-1.19,1.11-1.04,1.8.13.7.81,1.33,1.65,1.26.41-.03.83-.24,1.1-.59.28-.35.39-.83.3-1.28Z"/>
          </g>
        </g>
        <g>
          <rect class="cls-6" x="127.56" y="345.52" width="48.98" height="5.72" transform="translate(-94.51 59.08) rotate(-16.86)"/>
          <rect class="cls-5" x="127.56" y="345.52" width="48.98" height="5.72" transform="translate(-94.51 59.08) rotate(-16.86)"/>
          <rect class="cls-6" x="147.9" y="344.13" width="5.72" height="8.5" transform="translate(-98.5 62.08) rotate(-17.64)"/>
          <g>
            <polygon class="cls-6" points="129.05 366.25 116.96 313.87 80.45 322.53 98.42 373.57 129.05 366.25"/>
            <g>
              <polygon class="cls-6" points="137.15 363.59 129.05 366.25 116.96 313.87 128.61 316.64 137.15 363.59"/>
              <polygon class="cls-8" points="137.15 363.59 129.05 366.25 116.96 313.87 128.61 316.64 137.15 363.59"/>
            </g>
          </g>
          <circle class="cls-6" cx="175.49" cy="341.28" r="6.21"/>
        </g>
        <g>
          <rect class="cls-6" x="259.17" y="323.8" width="5.72" height="48.98" transform="translate(-147.6 497.18) rotate(-73.02)"/>
          <rect class="cls-5" x="259.17" y="323.8" width="5.72" height="48.98" transform="translate(-147.6 497.18) rotate(-73.02)"/>
          <rect class="cls-6" x="259.07" y="345.43" width="8.5" height="5.72" transform="translate(-148.73 492.73) rotate(-72.23)"/>
          <g>
            <polygon class="cls-6" points="284.98 366.2 297.19 313.85 333.68 322.58 315.6 373.59 284.98 366.2"/>
            <g>
              <polygon class="cls-6" points="276.89 363.52 284.98 366.2 297.19 313.85 285.53 316.6 276.89 363.52"/>
              <polygon class="cls-8" points="276.89 363.52 284.98 366.2 297.19 313.85 285.53 316.6 276.89 363.52"/>
            </g>
          </g>
          <path class="cls-6" d="M232.39,341.12c0,3.43,2.77,6.22,6.2,6.23,3.43,0,6.22-2.77,6.23-6.2,0-3.43-2.77-6.22-6.2-6.23-3.43,0-6.22,2.77-6.23,6.2Z"/>
        </g>
        <g>
          <g>
            <path class="cls-6" d="M279.29,276.52c.15-.14,15.2-14.1,32.91-9.33,18.11,4.89,33.07,32.17,33.21,32.44l5.03-2.72c-.65-1.21-16.25-29.72-36.76-35.25-20.86-5.62-37.64,10.03-38.35,10.7l3.94,4.15Z"/>
            <path class="cls-5" d="M279.29,276.52c.15-.14,15.2-14.1,32.91-9.33,18.11,4.89,33.07,32.17,33.21,32.44l5.03-2.72c-.65-1.21-16.25-29.72-36.76-35.25-20.86-5.62-37.64,10.03-38.35,10.7l3.94,4.15Z"/>
          </g>
          <path class="cls-6" d="M338.74,327.1l10.85-5.73c-1.04-1.97-2.32-5.36-2.51-8.42-.24-3.96,1.33-5.36,3.07-6.27,3.8-2.01,6.07-1.21,7.62-.3,2.17,1.28,4.38,3.91,6.22,7.39l10.85-5.73c-2.97-5.62-6.61-9.74-10.83-12.23-4.21-2.48-11.02-4.5-19.58.02-6.67,3.52-10.07,9.86-9.58,17.86.38,6.3,3.09,11.85,3.9,13.4Z"/>
        </g>
        <g>
          <path class="cls-1" d="M281.58,257.41c2.35-1.62,4.76-3.15,7.17-4.67,2.41-1.53,4.86-2.98,7.31-4.44,2.46-1.44,4.92-2.87,7.42-4.24l3.75-2.05c1.27-.65,2.52-1.33,3.81-1.96-1.17.82-2.37,1.59-3.56,2.38l-3.61,2.29c-2.41,1.52-4.86,2.98-7.31,4.44-2.46,1.44-4.92,2.87-7.43,4.24-2.5,1.38-5,2.74-7.56,4.01Z"/>
          <path class="cls-1" d="M275.35,280.81c3.37,1.92,6.56,4.08,9.7,6.31,3.13,2.25,6.22,4.56,9.12,7.12-3.37-1.92-6.56-4.08-9.7-6.31-3.13-2.25-6.21-4.56-9.12-7.12Z"/>
          <path class="cls-1" d="M280.88,277.93c2.6.79,5.16,1.68,7.71,2.59,2.56.9,5.08,1.87,7.61,2.84,2.52.99,5.04,1.99,7.53,3.05l3.73,1.6c1.23.57,2.48,1.1,3.7,1.7-1.3-.39-2.58-.83-3.87-1.24l-3.83-1.34c-2.56-.9-5.08-1.87-7.61-2.84-2.52-.99-5.04-1.99-7.53-3.05-2.49-1.06-4.98-2.13-7.43-3.3Z"/>
          <path class="cls-1" d="M288.26,259.6c2.49-.65,5-1.19,7.51-1.71,2.51-.53,5.03-.99,7.56-1.45,2.53-.43,5.06-.86,7.6-1.22l3.81-.53c1.28-.14,2.55-.31,3.83-.42-1.24.33-2.5.6-3.75.91l-3.76.8c-2.51.53-5.03.99-7.56,1.45-2.53.43-5.06.86-7.6,1.22-2.54.37-5.08.71-7.64.95Z"/>
        </g>
      </g>
      <g>
        <path class="cls-1" d="M228.25,275.17c.42-2.02,1.1-4,1.98-5.87.88-1.88,1.95-3.68,3.3-5.28,1.35-1.58,3.02-2.98,5.03-3.75,2-.75,4.3-.74,6.31.06,2.03.79,3.64,2.5,4.5,4.47.45.98.73,2.03.85,3.11.1,1.08.06,2.19-.37,3.27-.22.53-.56,1.06-1.1,1.42-.26.18-.59.29-.9.34-.31.04-.63.03-1-.09-.67-.28-1-.82-1.29-1.31-.26-.5-.46-1.02-.59-1.54-.56-2.09-.62-4.21-.52-6.31.3-4.18,1.4-8.36,3.65-11.96,1.14-1.78,2.56-3.41,4.34-4.61,1.75-1.2,3.8-2.03,5.89-2.27,1.03-.25,2.09-.23,3.14-.28.53-.06,1.05.07,1.57.1.52.07,1.05.06,1.56.21,2.08.37,4.03,1.21,5.85,2.22,1.81,1.05,3.43,2.39,4.9,3.84,1.46,1.47,2.79,3.08,3.86,4.85-2.36-3.37-5.41-6.3-9-8.27-1.81-.94-3.72-1.71-5.73-2.02-.49-.14-1.01-.11-1.51-.17-.51-.01-1.01-.13-1.51-.06-1.01.07-2.03.07-3.01.33-2.02.28-3.89,1.09-5.53,2.22-1.65,1.13-2.99,2.69-4.06,4.39-2.12,3.44-3.16,7.5-3.42,11.54-.11,2.02-.06,4.08.44,6,.24.92.67,1.95,1.3,2.24.08,0,.13.05.23.05.1,0,.2.01.3,0,.19-.03.37-.08.53-.2.33-.21.59-.57.76-.99.35-.85.42-1.86.33-2.83-.1-.98-.35-1.95-.75-2.85-.79-1.8-2.19-3.35-4.01-4.11-1.81-.77-3.92-.83-5.8-.18-1.89.68-3.51,1.98-4.87,3.48-2.72,3.05-4.56,6.86-5.65,10.83Z"/>
        <path class="cls-1" d="M135.84,301.09c.97-1.82,2.38-3.39,4.04-4.64,1.65-1.24,3.56-2.21,5.6-2.68,2.03-.49,4.22-.5,6.25.12,2.04.61,3.87,1.8,5.34,3.32,1.48,1.52,2.58,3.37,3.34,5.33.74,1.97,1.19,4.07,1.03,6.23-.11,1.06-.32,2.2-1.16,3.12-.42.45-1.06.75-1.68.76-.6,0-1.17-.1-1.72-.39-.55-.28-.99-.78-1.24-1.32-.25-.55-.35-1.12-.38-1.68-.04-1.12.2-2.18.53-3.2.67-2.03,1.77-3.85,3.06-5.51,1.29-1.65,2.82-3.13,4.53-4.35,3.39-2.46,7.7-3.83,11.91-3.28,2.08.28,4.14.88,5.96,1.94,1.84,1.02,3.43,2.45,4.72,4.07,1.3,1.63,2.31,3.47,3.08,5.38.78,1.91,1.35,3.91,1.63,5.95-.84-4.01-2.49-7.9-5.11-11-1.3-1.55-2.87-2.88-4.65-3.82-1.76-.97-3.74-1.5-5.73-1.72-4-.44-8.06.84-11.28,3.23-3.22,2.37-5.86,5.68-7.19,9.42-.31.93-.53,1.91-.5,2.85.02.93.35,1.83,1.1,2.21.35.2.83.28,1.25.29.41-.01.77-.17,1.05-.47.58-.61.83-1.61.92-2.56.16-1.95-.25-3.97-.95-5.84-.71-1.87-1.76-3.62-3.12-5.08-1.36-1.46-3.07-2.6-4.96-3.22-1.89-.63-3.96-.68-5.93-.26-3.94.84-7.59,3.3-9.76,6.79Z"/>
        <path class="cls-1" d="M89.58,59.59c-.11-4.11-.99-8.26-2.9-11.87-.96-1.79-2.23-3.44-3.9-4.55-1.67-1.08-3.74-1.53-5.68-1.21-1.95.31-3.68,1.48-4.88,3.04-.61.78-1.08,1.66-1.41,2.58-.32.92-.5,1.92-.36,2.83.07.45.23.87.5,1.15.13.15.29.24.47.32.08.05.19.05.28.08.1.02.16,0,.24,0,.68-.13,1.35-1.03,1.8-1.86.95-1.74,1.49-3.73,1.86-5.72.71-3.98.67-8.17-.57-12.02-.63-1.91-1.56-3.73-2.9-5.23-1.33-1.49-2.95-2.72-4.84-3.48-.89-.49-1.88-.73-2.84-1.04-.48-.19-.99-.19-1.49-.3-.5-.07-1-.21-1.5-.2-2.03-.18-4.07.12-6.04.6-3.95,1.05-7.61,3.17-10.71,5.88,1.46-1.47,3.13-2.71,4.9-3.79,1.78-1.06,3.67-1.98,5.68-2.56,2.01-.54,4.11-.89,6.21-.75.53-.03,1.04.11,1.57.17.52.1,1.05.1,1.55.28,1.01.3,2.05.53,2.99,1.02,1.97.73,3.77,2.03,5.18,3.61,1.44,1.58,2.43,3.51,3.11,5.51,1.33,4.03,1.4,8.36.69,12.49-.4,2.06-.97,4.11-2.01,6-.26.47-.57.93-.94,1.36-.39.4-.85.84-1.57.96-.38.04-.7-.03-.99-.15-.3-.12-.58-.3-.8-.54-.45-.47-.65-1.07-.74-1.64-.16-1.14.07-2.24.42-3.26.37-1.02.89-1.97,1.56-2.82,1.31-1.7,3.28-2.98,5.44-3.26,2.14-.3,4.38.24,6.14,1.45,1.76,1.23,3.05,2.98,3.98,4.84.93,1.88,1.54,3.88,1.95,5.92.4,2.03.59,4.11.52,6.18Z"/>
        <path class="cls-1" d="M310.4,111.76c-4.03-.85-8.26-.97-12.22.05-1.96.52-3.87,1.37-5.33,2.73-1.44,1.37-2.36,3.28-2.5,5.24-.16,1.96.58,3.92,1.82,5.45.61.77,1.36,1.44,2.18,1.97.82.52,1.75.93,2.66,1.01.45.04.9-.03,1.23-.22.17-.09.3-.23.42-.38.06-.07.09-.17.14-.26.04-.09.03-.16.06-.23.03-.69-.69-1.55-1.39-2.19-1.47-1.33-3.28-2.32-5.12-3.14-3.71-1.62-7.79-2.56-11.82-2.25-2,.17-3.99.65-5.76,1.6-1.76.94-3.34,2.23-4.51,3.9-.69.75-1.15,1.66-1.68,2.52-.29.42-.42.92-.64,1.37-.18.47-.44.92-.54,1.42-.64,1.93-.84,3.98-.83,6.02.1,4.09,1.3,8.14,3.22,11.79-1.08-1.76-1.9-3.68-2.54-5.65-.62-1.98-1.07-4.03-1.17-6.12-.06-2.08.09-4.2.72-6.22.1-.52.35-.99.53-1.48.22-.48.34-1,.63-1.44.53-.91.99-1.87,1.69-2.67,1.17-1.75,2.85-3.19,4.72-4.19,1.88-1.03,3.98-1.54,6.09-1.74,4.23-.35,8.45.59,12.3,2.24,1.91.87,3.77,1.9,5.37,3.36.4.36.77.77,1.1,1.23.3.48.62,1.02.57,1.75-.06.38-.19.67-.37.93-.19.26-.43.5-.72.65-.57.32-1.2.38-1.76.33-1.15-.11-2.16-.59-3.07-1.17-.9-.6-1.71-1.33-2.38-2.18-1.35-1.67-2.13-3.88-1.9-6.05.21-2.16,1.26-4.2,2.84-5.64,1.61-1.43,3.61-2.27,5.64-2.74,2.04-.47,4.14-.59,6.21-.51,2.07.08,4.14.38,6.13.94Z"/>
        <path class="cls-1" d="M248.49,47.06c-.68-2.37-.78-4.9-.39-7.35.38-2.45,1.21-4.85,2.57-6.96,1.33-2.11,3.2-3.94,5.45-5.1,2.24-1.17,4.8-1.68,7.32-1.6,2.53.07,5.01.72,7.29,1.76,2.28,1.06,4.41,2.49,6.07,4.45.79.99,1.55,2.14,1.6,3.59.02.71-.27,1.48-.78,2-.51.49-1.06.88-1.76,1.08-.69.21-1.45.16-2.11-.09-.66-.25-1.21-.66-1.7-1.11-.96-.91-1.64-2.02-2.2-3.16-1.11-2.29-1.7-4.76-1.98-7.25-.28-2.49-.2-5.02.23-7.49.84-4.93,3.38-9.69,7.42-12.73,2.01-1.5,4.26-2.71,6.7-3.33,2.42-.66,4.97-.78,7.43-.48,2.47.31,4.87,1.02,7.14,2,2.27.98,4.44,2.2,6.39,3.7-4.06-2.75-8.73-4.72-13.59-5.2-2.42-.25-4.88-.08-7.2.6-2.34.64-4.48,1.85-6.38,3.33-1.88,1.51-3.48,3.36-4.65,5.46-1.18,2.1-1.95,4.42-2.36,6.8-.78,4.75-.28,9.8,1.73,14.15.52,1.07,1.15,2.1,1.98,2.89.81.79,1.88,1.31,2.88.99.49-.13.98-.47,1.35-.82.35-.36.54-.83.53-1.35-.01-1.05-.65-2.12-1.38-3.02-1.51-1.82-3.56-3.22-5.73-4.23-2.18-1.01-4.56-1.63-6.96-1.74-2.4-.11-4.83.35-6.97,1.42-2.15,1.05-3.98,2.75-5.31,4.77-2.67,4.03-3.72,9.21-2.63,14.02Z"/>
        <g>
          <path class="cls-7" d="M132.5,301.31c-2.24-.71-4.63.54-5.33,2.78-.71,2.24.54,4.63,2.78,5.33,2.24.71,4.62-.54,5.33-2.78.71-2.24-.54-4.63-2.77-5.33ZM134.78,306.49c-.62,1.97-2.72,3.06-4.68,2.44-1.97-.62-3.06-2.72-2.44-4.68.62-1.97,2.72-3.06,4.68-2.44,1.96.62,3.06,2.71,2.44,4.68ZM132.5,301.31c-2.24-.71-4.63.54-5.33,2.78-.71,2.24.54,4.63,2.78,5.33,2.24.71,4.62-.54,5.33-2.78.71-2.24-.54-4.63-2.77-5.33ZM134.78,306.49c-.62,1.97-2.72,3.06-4.68,2.44-1.97-.62-3.06-2.72-2.44-4.68.62-1.97,2.72-3.06,4.68-2.44,1.96.62,3.06,2.71,2.44,4.68ZM132.5,301.31c-2.24-.71-4.63.54-5.33,2.78-.71,2.24.54,4.63,2.78,5.33,2.24.71,4.62-.54,5.33-2.78.71-2.24-.54-4.63-2.77-5.33ZM134.78,306.49c-.62,1.97-2.72,3.06-4.68,2.44-1.97-.62-3.06-2.72-2.44-4.68.62-1.97,2.72-3.06,4.68-2.44,1.96.62,3.06,2.71,2.44,4.68ZM133.92,296.82c-4.72-1.49-9.76,1.14-11.24,5.85-1.49,4.72,1.13,9.75,5.86,11.24,4.72,1.49,9.75-1.14,11.24-5.86,1.49-4.72-1.13-9.75-5.85-11.24ZM135.91,306.84c-.81,2.59-3.58,4.03-6.16,3.21-2.58-.81-4.02-3.58-3.21-6.16.81-2.59,3.58-4.02,6.16-3.21,2.58.81,4.02,3.58,3.21,6.16ZM135.28,306.64c.71-2.24-.54-4.63-2.77-5.33-2.24-.71-4.63.54-5.33,2.78-.71,2.24.54,4.63,2.78,5.33,2.24.71,4.62-.54,5.33-2.78ZM134.78,306.49c-.62,1.97-2.72,3.06-4.68,2.44-1.97-.62-3.06-2.72-2.44-4.68.62-1.97,2.72-3.06,4.68-2.44,1.96.62,3.06,2.71,2.44,4.68ZM132.5,301.31c-2.24-.71-4.63.54-5.33,2.78-.71,2.24.54,4.63,2.78,5.33,2.24.71,4.62-.54,5.33-2.78.71-2.24-.54-4.63-2.77-5.33ZM134.78,306.49c-.62,1.97-2.72,3.06-4.68,2.44-1.97-.62-3.06-2.72-2.44-4.68.62-1.97,2.72-3.06,4.68-2.44,1.96.62,3.06,2.71,2.44,4.68ZM132.5,301.31c-2.24-.71-4.63.54-5.33,2.78-.71,2.24.54,4.63,2.78,5.33,2.24.71,4.62-.54,5.33-2.78.71-2.24-.54-4.63-2.77-5.33ZM134.78,306.49c-.62,1.97-2.72,3.06-4.68,2.44-1.97-.62-3.06-2.72-2.44-4.68.62-1.97,2.72-3.06,4.68-2.44,1.96.62,3.06,2.71,2.44,4.68Z"/>
          <g>
            <polygon class="cls-7" points="130.28 314.07 127 313.04 126.44 315.42 129.37 316.34 130.28 314.07"/>
            <polygon class="cls-7" points="124.38 311 122.78 307.94 120.71 309.24 122.12 311.95 124.38 311"/>
            <polygon class="cls-7" points="122.38 304.64 123.41 301.36 121.03 300.8 120.11 303.73 122.38 304.64"/>
            <polygon class="cls-7" points="125.45 298.74 128.51 297.14 127.22 295.07 124.5 296.48 125.45 298.74"/>
            <polygon class="cls-7" points="131.81 296.74 135.1 297.77 135.65 295.39 132.72 294.47 131.81 296.74"/>
            <polygon class="cls-7" points="137.72 299.81 139.31 302.87 141.38 301.57 139.97 298.86 137.72 299.81"/>
            <polygon class="cls-7" points="139.72 306.17 138.68 309.45 141.06 310.01 141.98 307.08 139.72 306.17"/>
            <polygon class="cls-7" points="136.64 312.07 133.58 313.67 134.88 315.74 137.59 314.33 136.64 312.07"/>
          </g>
        </g>
        <g>
          <g>
            <path class="cls-1" d="M298.3,272.74c4.51-6.07,3.24-14.65-2.84-19.16-6.08-4.51-14.66-3.24-19.16,2.83-4.51,6.08-3.24,14.66,2.84,19.17,6.07,4.51,14.65,3.24,19.16-2.84ZM292.44,268.38c-2.11,2.84-6.11,3.43-8.95,1.33-2.84-2.11-3.43-6.11-1.32-8.95,2.11-2.84,6.11-3.43,8.95-1.32,2.84,2.11,3.43,6.11,1.32,8.95Z"/>
            <polygon class="cls-1" points="281.59 276.69 277.36 273.55 275.37 276.71 279.13 279.51 281.59 276.69"/>
            <polygon class="cls-1" points="274.6 269.29 273.82 264.07 270.18 264.91 270.86 269.54 274.6 269.29"/>
            <polygon class="cls-1" points="274.88 259.11 278.02 254.88 274.85 252.89 272.06 256.65 274.88 259.11"/>
            <polygon class="cls-1" points="282.28 252.11 287.49 251.34 286.66 247.7 282.03 248.38 282.28 252.11"/>
            <polygon class="cls-1" points="292.46 252.4 296.69 255.54 298.68 252.37 294.92 249.58 292.46 252.4"/>
            <polygon class="cls-1" points="299.46 259.8 300.23 265.01 303.87 264.18 303.19 259.54 299.46 259.8"/>
            <polygon class="cls-1" points="299.17 269.98 296.03 274.21 299.2 276.2 301.99 272.44 299.17 269.98"/>
            <polygon class="cls-1" points="291.77 276.97 286.56 277.75 287.39 281.39 292.02 280.71 291.77 276.97"/>
          </g>
          <path class="cls-1" d="M282.39,265.23l2.91,3.67,4.63-.69,1.72-4.35-2.91-3.67-4.63.68-1.72,4.36ZM287.91,263.35c.66.49.8,1.42.31,2.08-.49.66-1.42.8-2.08.31-.66-.49-.8-1.42-.31-2.08.49-.66,1.42-.8,2.08-.31Z"/>
        </g>
        <g>
          <path class="cls-1" d="M308.57,5.99c-1.96-.62-4.05.47-4.67,2.43-.62,1.96.47,4.05,2.43,4.67,1.96.62,4.05-.47,4.66-2.43.62-1.96-.47-4.05-2.43-4.67ZM310.57,10.52c-.54,1.72-2.38,2.68-4.1,2.14-1.72-.54-2.68-2.38-2.13-4.1.54-1.72,2.38-2.68,4.1-2.13,1.72.54,2.67,2.38,2.13,4.1ZM308.57,5.99c-1.96-.62-4.05.47-4.67,2.43-.62,1.96.47,4.05,2.43,4.67,1.96.62,4.05-.47,4.66-2.43.62-1.96-.47-4.05-2.43-4.67ZM310.57,10.52c-.54,1.72-2.38,2.68-4.1,2.14-1.72-.54-2.68-2.38-2.13-4.1.54-1.72,2.38-2.68,4.1-2.13,1.72.54,2.67,2.38,2.13,4.1ZM308.57,5.99c-1.96-.62-4.05.47-4.67,2.43-.62,1.96.47,4.05,2.43,4.67,1.96.62,4.05-.47,4.66-2.43.62-1.96-.47-4.05-2.43-4.67ZM310.57,10.52c-.54,1.72-2.38,2.68-4.1,2.14-1.72-.54-2.68-2.38-2.13-4.1.54-1.72,2.38-2.68,4.1-2.13,1.72.54,2.67,2.38,2.13,4.1ZM309.81,2.06c-4.13-1.3-8.54.99-9.84,5.12-1.3,4.13.99,8.54,5.12,9.84,4.13,1.3,8.53-.99,9.84-5.12,1.3-4.13-.99-8.54-5.12-9.84ZM311.55,10.83c-.71,2.26-3.13,3.52-5.39,2.81-2.26-.71-3.52-3.13-2.81-5.39.71-2.26,3.13-3.52,5.39-2.81,2.26.71,3.52,3.13,2.81,5.39ZM311,10.65c.62-1.96-.47-4.05-2.43-4.67-1.96-.62-4.05.47-4.67,2.43-.62,1.96.47,4.05,2.43,4.67,1.96.62,4.05-.47,4.66-2.43ZM310.57,10.52c-.54,1.72-2.38,2.68-4.1,2.14-1.72-.54-2.68-2.38-2.13-4.1.54-1.72,2.38-2.68,4.1-2.13,1.72.54,2.67,2.38,2.13,4.1ZM308.57,5.99c-1.96-.62-4.05.47-4.67,2.43-.62,1.96.47,4.05,2.43,4.67,1.96.62,4.05-.47,4.66-2.43.62-1.96-.47-4.05-2.43-4.67ZM310.57,10.52c-.54,1.72-2.38,2.68-4.1,2.14-1.72-.54-2.68-2.38-2.13-4.1.54-1.72,2.38-2.68,4.1-2.13,1.72.54,2.67,2.38,2.13,4.1ZM308.57,5.99c-1.96-.62-4.05.47-4.67,2.43-.62,1.96.47,4.05,2.43,4.67,1.96.62,4.05-.47,4.66-2.43.62-1.96-.47-4.05-2.43-4.67ZM310.57,10.52c-.54,1.72-2.38,2.68-4.1,2.14-1.72-.54-2.68-2.38-2.13-4.1.54-1.72,2.38-2.68,4.1-2.13,1.72.54,2.67,2.38,2.13,4.1Z"/>
          <g>
            <polygon class="cls-1" points="306.63 17.16 303.75 16.25 303.27 18.34 305.83 19.14 306.63 17.16"/>
            <polygon class="cls-1" points="301.46 14.46 300.07 11.79 298.25 12.92 299.49 15.3 301.46 14.46"/>
            <polygon class="cls-1" points="299.71 8.9 300.62 6.03 298.53 5.55 297.72 8.1 299.71 8.9"/>
            <polygon class="cls-1" points="302.4 3.74 305.08 2.34 303.94 .53 301.57 1.77 302.4 3.74"/>
            <polygon class="cls-1" points="307.96 1.99 310.84 2.89 311.32 .81 308.76 0 307.96 1.99"/>
            <polygon class="cls-1" points="313.13 4.68 314.53 7.35 316.34 6.22 315.1 3.84 313.13 4.68"/>
            <polygon class="cls-1" points="314.88 10.24 313.98 13.12 316.06 13.6 316.87 11.04 314.88 10.24"/>
            <polygon class="cls-1" points="312.19 15.41 309.51 16.8 310.65 18.62 313.03 17.38 312.19 15.41"/>
          </g>
        </g>
        <g>
          <path class="cls-1" d="M270.35,148.85c-1.96-.62-4.05.47-4.67,2.43-.62,1.96.47,4.05,2.43,4.67,1.96.62,4.05-.47,4.66-2.43.62-1.96-.47-4.05-2.43-4.67ZM272.35,153.38c-.54,1.72-2.38,2.68-4.1,2.14s-2.68-2.38-2.13-4.1c.54-1.72,2.38-2.68,4.1-2.13,1.72.54,2.67,2.38,2.13,4.1ZM270.35,148.85c-1.96-.62-4.05.47-4.67,2.43-.62,1.96.47,4.05,2.43,4.67,1.96.62,4.05-.47,4.66-2.43.62-1.96-.47-4.05-2.43-4.67ZM272.35,153.38c-.54,1.72-2.38,2.68-4.1,2.14s-2.68-2.38-2.13-4.1c.54-1.72,2.38-2.68,4.1-2.13,1.72.54,2.67,2.38,2.13,4.1ZM270.35,148.85c-1.96-.62-4.05.47-4.67,2.43-.62,1.96.47,4.05,2.43,4.67,1.96.62,4.05-.47,4.66-2.43.62-1.96-.47-4.05-2.43-4.67ZM272.35,153.38c-.54,1.72-2.38,2.68-4.1,2.14s-2.68-2.38-2.13-4.1c.54-1.72,2.38-2.68,4.1-2.13,1.72.54,2.67,2.38,2.13,4.1ZM271.59,144.92c-4.13-1.3-8.54.99-9.84,5.12-1.3,4.13.99,8.54,5.12,9.84,4.13,1.3,8.53-.99,9.84-5.12,1.3-4.13-.99-8.54-5.12-9.84ZM273.33,153.69c-.71,2.26-3.13,3.52-5.39,2.81s-3.52-3.13-2.81-5.39c.71-2.26,3.13-3.52,5.39-2.81,2.26.71,3.52,3.13,2.81,5.39ZM272.78,153.52c.62-1.96-.47-4.05-2.43-4.67-1.96-.62-4.05.47-4.67,2.43-.62,1.96.47,4.05,2.43,4.67,1.96.62,4.05-.47,4.66-2.43ZM272.35,153.38c-.54,1.72-2.38,2.68-4.1,2.14s-2.68-2.38-2.13-4.1c.54-1.72,2.38-2.68,4.1-2.13,1.72.54,2.67,2.38,2.13,4.1ZM270.35,148.85c-1.96-.62-4.05.47-4.67,2.43-.62,1.96.47,4.05,2.43,4.67,1.96.62,4.05-.47,4.66-2.43.62-1.96-.47-4.05-2.43-4.67ZM272.35,153.38c-.54,1.72-2.38,2.68-4.1,2.14s-2.68-2.38-2.13-4.1c.54-1.72,2.38-2.68,4.1-2.13,1.72.54,2.67,2.38,2.13,4.1ZM270.35,148.85c-1.96-.62-4.05.47-4.67,2.43-.62,1.96.47,4.05,2.43,4.67,1.96.62,4.05-.47,4.66-2.43.62-1.96-.47-4.05-2.43-4.67ZM272.35,153.38c-.54,1.72-2.38,2.68-4.1,2.14s-2.68-2.38-2.13-4.1c.54-1.72,2.38-2.68,4.1-2.13,1.72.54,2.67,2.38,2.13,4.1Z"/>
          <g>
            <polygon class="cls-1" points="268.41 160.02 265.54 159.12 265.05 161.2 267.61 162.01 268.41 160.02"/>
            <polygon class="cls-1" points="263.24 157.33 261.85 154.66 260.04 155.79 261.27 158.17 263.24 157.33"/>
            <polygon class="cls-1" points="261.49 151.77 262.4 148.89 260.31 148.41 259.51 150.97 261.49 151.77"/>
            <polygon class="cls-1" points="264.19 146.6 266.86 145.21 265.73 143.39 263.35 144.63 264.19 146.6"/>
            <polygon class="cls-1" points="269.75 144.85 272.62 145.76 273.11 143.67 270.55 142.87 269.75 144.85"/>
            <polygon class="cls-1" points="274.92 147.54 276.31 150.22 278.13 149.09 276.89 146.71 274.92 147.54"/>
            <polygon class="cls-1" points="276.67 153.1 275.76 155.98 277.85 156.46 278.65 153.91 276.67 153.1"/>
            <polygon class="cls-1" points="273.97 158.27 271.3 159.67 272.43 161.48 274.81 160.24 273.97 158.27"/>
          </g>
        </g>
        <g>
          <g>
            <path class="cls-1" d="M51.65,36.38c1.54-6.33-2.34-12.71-8.67-14.25-6.33-1.54-12.71,2.34-14.25,8.67-1.54,6.33,2.34,12.71,8.67,14.25,6.33,1.54,12.71-2.34,14.25-8.67ZM45.54,34.89c-.72,2.96-3.7,4.77-6.65,4.05-2.96-.72-4.77-3.7-4.05-6.66.72-2.96,3.7-4.77,6.66-4.05,2.96.72,4.77,3.7,4.05,6.65Z"/>
            <polygon class="cls-1" points="39.71 45.11 35.31 44.04 34.79 47.21 38.71 48.17 39.71 45.11"/>
            <polygon class="cls-1" points="31.69 41.58 29.33 37.71 26.72 39.59 28.81 43.04 31.69 41.58"/>
            <polygon class="cls-1" points="28.51 33.41 29.58 29 26.4 28.49 25.45 32.41 28.51 33.41"/>
            <polygon class="cls-1" points="32.04 25.38 35.91 23.03 34.03 20.41 30.58 22.51 32.04 25.38"/>
            <polygon class="cls-1" points="40.21 22.2 44.61 23.28 45.13 20.1 41.21 19.14 40.21 22.2"/>
            <polygon class="cls-1" points="48.23 25.73 50.59 29.61 53.2 27.73 51.11 24.28 48.23 25.73"/>
            <polygon class="cls-1" points="51.41 33.9 50.34 38.31 53.52 38.83 54.47 34.91 51.41 33.9"/>
            <polygon class="cls-1" points="47.88 41.93 44.01 44.29 45.89 46.9 49.34 44.8 47.88 41.93"/>
          </g>
          <path class="cls-1" d="M36.51,35.75l3.54,1.94,3.45-2.1-.09-4.03-3.53-1.94-3.45,2.09.09,4.03ZM40.26,32.42c.69.17,1.11.86.94,1.54-.17.68-.86,1.11-1.54.94-.68-.17-1.11-.86-.94-1.54.17-.69.86-1.11,1.54-.94Z"/>
        </g>
      </g>
      <g>
        <g>
          <path class="cls-4" d="M318.22,158.32c-2.69-4.1-4.2-8.7-4.2-13.57,0-17.2,18.88-31.14,42.16-31.14s42.14,13.94,42.14,31.14-18.87,31.14-42.14,31.14c-11.29,0-21.52-3.27-29.08-8.62l-14.52,3.69,5.64-12.64Z"/>
          <path class="cls-2" d="M318.22,158.32c-2.54-3.78-4.13-8.25-4.3-12.83-.13-4.58,1-9.21,3.35-13.17,2.3-3.99,5.57-7.35,9.27-10.06,3.7-2.72,7.87-4.78,12.23-6.22,4.35-1.45,8.89-2.33,13.47-2.69,4.58-.34,9.2-.05,13.73.7,1.12.23,2.27.38,3.38.68l3.33.9,3.25,1.15c1.08.39,2.11.92,3.17,1.37,4.15,1.97,8.05,4.56,11.32,7.83,3.27,3.25,5.9,7.23,7.29,11.68,1.39,4.43,1.49,9.3.14,13.76-1.31,4.47-3.89,8.49-7.11,11.79-3.23,3.31-7.09,5.94-11.22,7.96-4.13,2.04-8.58,3.38-13.09,4.19-4.52.78-9.13,1.11-13.71.79-4.58-.29-9.12-1.13-13.48-2.56-4.35-1.43-8.54-3.43-12.26-6.11l.19.03-14.55,3.58-.22.05.09-.2,5.74-12.6ZM318.22,158.32l-5.54,12.69-.13-.15,14.49-3.81.1-.03.09.06c7.48,5.16,16.5,7.85,25.52,8.33,4.52.28,9.07-.09,13.52-.89,4.44-.83,8.81-2.14,12.86-4.16,4.05-1.99,7.81-4.58,10.95-7.81,3.13-3.22,5.6-7.11,6.84-11.41,1.29-4.29,1.16-8.94-.16-13.2-1.32-4.27-3.85-8.12-7.01-11.3-3.17-3.19-6.97-5.73-11.03-7.68-1.04-.45-2.04-.97-3.1-1.35l-3.19-1.14-3.27-.89c-1.09-.29-2.22-.45-3.32-.68-4.45-.76-9-1.03-13.52-.74-4.51.32-8.99,1.14-13.3,2.54-4.31,1.39-8.44,3.38-12.11,6.03-3.67,2.63-6.91,5.92-9.24,9.81-2.38,3.86-3.56,8.41-3.51,12.95.09,4.55,1.6,9.02,4.08,12.84Z"/>
        </g>
        <g>
          <path class="cls-1" d="M334.49,149.85v2.32h-9.43v-13.59h9.26v2.32h-6.62v3.27h5.72v2.14h-5.72v3.54h6.79Z"/>
          <path class="cls-1" d="M336.55,152.17v-13.59h6.01c.62,0,1.2.13,1.73.39.53.26.99.61,1.37,1.03.38.43.68.91.9,1.45.22.54.33,1.09.33,1.64,0,.88-.22,1.68-.66,2.4-.44.72-1.04,1.24-1.79,1.56l3.1,5.11h-2.97l-2.77-4.55h-2.6v4.55h-2.64ZM339.2,145.29h3.31c.24,0,.47-.06.68-.17.21-.11.39-.27.55-.47.15-.2.27-.43.36-.7.09-.27.13-.56.13-.86s-.05-.61-.15-.88c-.1-.27-.24-.5-.41-.7-.17-.2-.37-.35-.59-.46-.22-.11-.45-.16-.68-.16h-3.2v4.4Z"/>
          <path class="cls-1" d="M349.28,152.17v-13.59h6.01c.62,0,1.2.13,1.73.39.53.26.99.61,1.37,1.03.38.43.68.91.9,1.45.22.54.33,1.09.33,1.64,0,.88-.22,1.68-.66,2.4-.44.72-1.04,1.24-1.79,1.56l3.1,5.11h-2.97l-2.77-4.55h-2.6v4.55h-2.64ZM351.92,145.29h3.31c.24,0,.47-.06.68-.17.21-.11.39-.27.55-.47.15-.2.27-.43.36-.7.09-.27.13-.56.13-.86s-.05-.61-.15-.88c-.1-.27-.24-.5-.41-.7-.17-.2-.37-.35-.59-.46-.22-.11-.45-.16-.68-.16h-3.2v4.4Z"/>
          <path class="cls-1" d="M367.81,152.26c-1,0-1.9-.19-2.71-.58-.81-.39-1.51-.91-2.09-1.55-.58-.64-1.03-1.38-1.35-2.21-.32-.83-.48-1.68-.48-2.55s.17-1.77.51-2.6c.34-.83.8-1.56,1.4-2.2.59-.64,1.3-1.14,2.12-1.52.82-.38,1.7-.57,2.66-.57s1.88.2,2.69.6c.81.4,1.5.93,2.08,1.58.57.65,1.02,1.39,1.34,2.22.32.83.48,1.67.48,2.53,0,.91-.17,1.77-.5,2.59-.33.82-.79,1.55-1.38,2.18-.59.63-1.29,1.14-2.11,1.51-.82.38-1.7.56-2.66.56ZM363.86,145.37c0,.59.09,1.15.27,1.7.18.55.44,1.03.78,1.45s.75.76,1.24,1.01c.49.26,1.05.38,1.67.38s1.2-.13,1.69-.39c.49-.26.91-.61,1.24-1.04.34-.43.59-.92.77-1.46.17-.54.26-1.09.26-1.66s-.09-1.15-.28-1.7c-.19-.55-.45-1.03-.78-1.45-.34-.42-.75-.76-1.24-1-.49-.25-1.04-.37-1.66-.37s-1.21.13-1.7.39c-.5.26-.91.61-1.24,1.03-.33.43-.58.91-.76,1.45-.17.54-.26,1.09-.26,1.66Z"/>
          <path class="cls-1" d="M376.47,152.17v-13.59h6.01c.62,0,1.2.13,1.73.39.53.26.99.61,1.37,1.03.38.43.68.91.9,1.45.22.54.33,1.09.33,1.64,0,.88-.22,1.68-.66,2.4-.44.72-1.04,1.24-1.79,1.56l3.1,5.11h-2.97l-2.77-4.55h-2.6v4.55h-2.64ZM379.12,145.29h3.31c.24,0,.47-.06.68-.17.21-.11.39-.27.55-.47.15-.2.27-.43.36-.7.09-.27.13-.56.13-.86s-.05-.61-.15-.88c-.1-.27-.24-.5-.41-.7-.17-.2-.37-.35-.59-.46-.22-.11-.45-.16-.68-.16h-3.2v4.4Z"/>
        </g>
      </g>
    </g>
  </g>
</svg>